<svg xmlns="http://www.w3.org/2000/svg" width="450" height="100" xmlns:xlink="http://www.w3.org/1999/xlink"><defs><symbol id="a" viewBox="0 0 18 18"><path fill="none" stroke="#B7B7B7" stroke-miterlimit="10" d="M9 9.5h9" stroke-dasharray="1"/><g fill="none" stroke="#B7B7B7" stroke-miterlimit="10"><path d="M9.5 1v1"/><path d="M9.5 3v14" stroke-dasharray="1 1"/><path d="M9.5 17v1"/></g></symbol><symbol id="b" viewBox="0 0 18 18"><path fill="#353535" d="M7 9h5v1H7z"/><path fill="#353535" d="M9 7h1v5H9z"/><path fill="none" stroke="#B7B7B7" stroke-miterlimit="10" d="M5.5 5.5h8v8h-8z"/><g fill="none" stroke="#B7B7B7" stroke-miterlimit="10"><path d="M15 9.5h1" stroke-dasharray="1 1"/><path d="M17 9.5h1"/></g><g fill="none" stroke="#B7B7B7" stroke-miterlimit="10"><path d="M9.5 15v2" stroke-dasharray="1 1"/><path d="M9.5 17v1"/></g><g fill="none" stroke="#B7B7B7" stroke-miterlimit="10"><path d="M9.5 1v1"/><path d="M9.5 3v2" stroke-dasharray="1 1"/></g></symbol><symbol id="c" viewBox="0 0 18 18"><path fill="#353535" d="M7 9h5v1H7V9z"/><path fill="none" stroke="#B7B7B7" stroke-miterlimit="10" d="M5.5 5.5h8v8h-8v-8z"/><g fill="none" stroke="#B7B7B7" stroke-miterlimit="10"><path d="M15 9.5h1" stroke-dasharray="1 1"/><path d="M17 9.5h1"/></g><g fill="none" stroke="#B7B7B7" stroke-miterlimit="10"><path d="M9.5 15v2" stroke-dasharray="1 1"/><path d="M9.5 17v1"/></g><g fill="none" stroke="#B7B7B7" stroke-miterlimit="10"><path d="M9.5 1v1"/><path d="M9.5 3v2" stroke-dasharray="1 1"/></g></symbol><symbol id="d" viewBox="0 0 18 18"><path fill="none" stroke="#B7B7B7" stroke-miterlimit="10" d="M9 9.5h10" stroke-dasharray="1"/><path fill="none" stroke="#B7B7B7" stroke-miterlimit="10" d="M9.5 1v7" stroke-dasharray="1 1"/></symbol><symbol id="e" viewBox="0 0 18 18"><path fill="#353535" d="M7 9h5v1H7V9z"/><path fill="none" stroke="#B7B7B7" stroke-miterlimit="10" d="M5.5 5.5h8v8h-8v-8z"/><g fill="none" stroke="#B7B7B7" stroke-miterlimit="10"><path d="M15 9.5h2" stroke-dasharray="1 1"/><path d="M17 9.5h1"/></g><g fill="none" stroke="#B7B7B7" stroke-miterlimit="10"><path d="M9.5 1v1"/><path d="M9.5 3v2" stroke-dasharray="1 1"/><path d="M9.5 5v1"/></g></symbol><symbol id="f" viewBox="0 0 18 18"><path fill="#353535" d="M7 9h5v1H7z"/><path fill="#353535" d="M9 7h1v5H9z"/><path fill="none" stroke="#B7B7B7" stroke-miterlimit="10" d="M5.5 5.5h8v8h-8z"/><g fill="none" stroke="#B7B7B7" stroke-miterlimit="10"><path d="M15 9.5h2" stroke-dasharray="1 1"/><path d="M17 9.5h1"/></g><g fill="none" stroke="#B7B7B7" stroke-miterlimit="10"><path d="M9.5 1v1"/><path d="M9.5 3v2" stroke-dasharray="1 1"/><path d="M9.5 5v1"/></g></symbol><symbol id="g" viewBox="0 0 18 18"><path fill="#353535" d="M7 9h5v1H7z"/><path fill="none" stroke="#B7B7B7" stroke-miterlimit="10" d="M5.5 5.5h8v8h-8z"/><g fill="none" stroke="#B7B7B7" stroke-miterlimit="10"><path d="M15 9.5h2" stroke-dasharray="1 1"/><path d="M17 9.5h1"/></g><g fill="none" stroke="#B7B7B7" stroke-miterlimit="10"><path d="M9.5 13v1"/><path d="M9.5 15v2" stroke-dasharray="1 1"/><path d="M9.5 17v1"/></g></symbol><symbol id="h" viewBox="0 0 18 18"><path fill="#353535" d="M7 9h5v1H7z"/><path fill="#353535" d="M9 7h1v5H9z"/><path fill="none" stroke="#B7B7B7" stroke-miterlimit="10" d="M5.5 5.5h8v8h-8z"/><g fill="none" stroke="#B7B7B7" stroke-miterlimit="10"><path d="M13 9.5h4" stroke-dasharray="1 1"/><path d="M17 9.5h1"/></g><g fill="none" stroke="#B7B7B7" stroke-miterlimit="10"><path d="M9.5 13v1"/><path d="M9.5 15v2" stroke-dasharray="1 1"/><path d="M9.5 17v1"/></g></symbol><symbol id="i" viewBox="0 0 18 18"><path fill="#353535" d="M7 9h5v1H7V9z"/><path fill="#353535" d="M9 7h1v5H9V7z"/><path fill="none" stroke="#B7B7B7" stroke-miterlimit="10" d="M5.5 5.5h8v8h-8v-8z"/><g fill="none" stroke="#B7B7B7" stroke-miterlimit="10"><path d="M15 9.5h1" stroke-dasharray="1 1"/><path d="M17 9.5h1"/></g></symbol><symbol id="j" viewBox="0 0 18 18"><path fill="#353535" d="M7 9h5v1H7V9z"/><path fill="none" stroke="#B7B7B7" stroke-miterlimit="10" d="M5.5 5.5h8v8h-8v-8z"/><g fill="none" stroke="#B7B7B7" stroke-miterlimit="10"><path d="M15 9.5h1" stroke-dasharray="1 1"/><path d="M17 9.5h1"/></g></symbol><symbol id="k" viewBox="0 0 18 2"><path fill="#B7B7B7" d="M9 1h1v1H9z"/></symbol><symbol id="l" viewBox="0 0 491.52 491.52"><path fill="#F6C358" d="M445.522 88.989h-259.23c-5.832 0-11.24-3.318-14.26-8.749l-13.88-24.957c-3.021-5.432-8.427-8.749-14.259-8.749H45.998c-9.208 0-16.671 8.126-16.671 18.15v362.151c0 10.024 7.463 18.15 16.671 18.15h399.523c9.207 0 16.671-8.126 16.671-18.15V107.14c0-10.024-7.464-18.151-16.67-18.151z"/><path fill="#EBF0F3" d="M55.383 133.12h385.536v122.092H55.383z"/><path fill="#FFF" d="M55.383 150.17h385.536v122.092H55.383z"/><path fill="#FCD462" d="M474.806 216.429H16.714c-10.557 0-17.956 8.348-16.541 18.538l27.158 195.639c1.107 7.974 9.46 14.379 18.667 14.379h399.523c9.207 0 17.56-6.405 18.667-14.379l27.158-195.639c1.415-10.19-5.984-18.538-16.54-18.538z"/></symbol><symbol id="m" viewBox="0 0 180 180"><path fill="#F6C358" d="M163.2 32.6h-95c-2.1 0-4.1-1.2-5.2-3.2l-5.1-9.1c-1.1-2-3.1-3.2-5.2-3.2H16.8c-3.4 0-6.1 3-6.1 6.6v132.6c0 3.7 2.7 6.6 6.1 6.6h146.3c3.4 0 6.1-3 6.1-6.6V39.2c.1-3.6-2.7-6.6-6-6.6z"/><path fill="#EBF0F3" d="M20.3 48.8h141.2v44.7H20.3V48.8z"/><path fill="#FCD462" d="M163.9 57.7H16.1c-3.9 0-6.6 3.8-6.1 8.5v90.1c.4 3.7 3.5 6.6 6.8 6.6h146.3c3.4 0 6.4-3 6.8-6.6l-.1-90.1c.5-4.7-.2-8.5-4.1-8.5h-1.8z"/></symbol><symbol id="n" viewBox="0 0 512 512"><path fill="#518EF8" d="M441.412 140.235v338.781c0 18.219-14.778 32.983-32.983 32.983H103.572c-18.219 0-32.983-14.764-32.983-32.983V32.983C70.588 14.764 85.352 0 103.572 0h197.605l140.235 140.235z"/><path fill="#FFF" d="M161.18 257.054h189.626v21.071H161.18zm0 47.058h189.626v21.071H161.18zm0 47.059h189.626v21.071H161.18zm0 47.059h134.855v21.071H161.18z"/><path fill="#3A5BBC" d="M320.31 137.188l121.102 49.891v-46.844l-68.661-20.273z"/><path fill="#ACD1FC" d="M441.412 140.235H334.16c-18.22 0-32.983-14.764-32.983-32.983V0l140.235 140.235z"/></symbol></defs><use width="50" height="50" xlink:href="#a"/><use width="50" height="50" x="50" xlink:href="#b"/><use width="50" height="50" x="100" xlink:href="#c"/><use width="50" height="50" x="150" xlink:href="#d"/><use width="50" height="50" x="200" xlink:href="#e"/><use width="50" height="50" x="250" xlink:href="#f"/><use width="50" height="50" x="300" xlink:href="#g"/><use width="50" height="50" x="350" xlink:href="#h"/><use width="50" height="50" x="400" xlink:href="#i"/><use width="50" height="50" y="50" xlink:href="#j"/><use width="50" height="50" x="50" y="50" xlink:href="#k"/><use width="50" height="50" x="100" y="50" xlink:href="#l"/><use width="50" height="50" x="150" y="50" xlink:href="#m"/><use width="50" height="50" x="200" y="50" xlink:href="#n"/></svg>