<?xml version="1.0" encoding="utf-8"?>
<svg version="1.1" xmlns="http://www.w3.org/2000/svg" xmlns:xlink="http://www.w3.org/1999/xlink" x="0px" y="0px"
	 viewBox="0 0 20 22" xml:space="preserve">
<rect x="11" fill="#AAAAAA" width="1" height="1"/>
<rect x="11" y="2" fill="#AAAAAA" width="1" height="1"/>
<rect x="11" y="4" fill="#AAAAAA" width="1" height="1"/>
<rect x="11" y="6" fill="#AAAAAA" width="1" height="1"/>
<rect x="11" y="8" fill="#AAAAAA" width="1" height="1"/>
<rect x="11" y="10" fill="#AAAAAA" width="1" height="1"/>
<rect x="13" y="10" fill="#AAAAAA" width="1" height="1"/>
<rect x="15" y="10" fill="#AAAAAA" width="1" height="1"/>
<rect x="11" y="12" fill="#AAAAAA" width="1" height="1"/>
<rect x="11" y="14" fill="#AAAAAA" width="1" height="1"/>
<rect x="11" y="16" fill="#AAAAAA" width="1" height="1"/>
<rect x="11" y="18" fill="#AAAAAA" width="1" height="1"/>
<rect x="11" y="20" fill="#AAAAAA" width="1" height="1"/>
<rect x="19" y="10" fill="#AAAAAA" width="1" height="1"/>
<rect x="17" y="10" fill="#AAAAAA" width="1" height="1"/>
</svg>
